HIERARCHY
ROOT Hips
{
 OFFSET 0.000000 0.000000 0.000000
 CHANNELS 6 Xposition Yposition Zposition Yrotation Xrotation Zrotation
 JOINT Chest
 {
  OFFSET 0.000000 9.585900 0.002600
  CHANNELS 3 Yrotation Xrotation Zrotation
  JOINT Chest2
  {
   OFFSET 0.000000 9.601200 -0.005300
   CHANNELS 3 Yrotation Xrotation Zrotation
   JOINT Chest3
   {
    OFFSET 0.000000 9.561800 0.000000
    CHANNELS 3 Yrotation Xrotation Zrotation
    JOINT Chest4
    {
     OFFSET 0.000000 9.552100 0.000000
     CHANNELS 3 Yrotation Xrotation Zrotation
     JOINT Neck
     {
      OFFSET 0.000000 14.453000 0.000000
      CHANNELS 3 Yrotation Xrotation Zrotation
      JOINT Head
      {
       OFFSET 0.000000 8.936500 -0.011300
       CHANNELS 3 Yrotation Xrotation Zrotation
       End Site
       {
        OFFSET 0.000000 17.073600 -0.006000
       }
      }
     }
     JOINT RightCollar
     {
      OFFSET -2.921100 9.558500 0.000000
      CHANNELS 3 Yrotation Xrotation Zrotation
      JOINT RightShoulder
      {
       OFFSET -13.519700 0.000000 0.000000
       CHANNELS 3 Yrotation Xrotation Zrotation
       JOINT RightElbow
       {
        OFFSET 0.000000 -29.696600 0.000000
        CHANNELS 3 Yrotation Xrotation Zrotation
        JOINT RightWrist
        {
         OFFSET 0.000000 -24.004700 0.000000
         CHANNELS 3 Yrotation Xrotation Zrotation
         End Site
         {
          OFFSET 0.000000 -17.728500 0.000000
         }
        }
       }
      }
     }
     JOINT LeftCollar
     {
      OFFSET 2.921100 9.558500 0.000000
      CHANNELS 3 Yrotation Xrotation Zrotation
      JOINT LeftShoulder
      {
       OFFSET 13.519700 0.000000 0.000000
       CHANNELS 3 Yrotation Xrotation Zrotation
       JOINT LeftElbow
       {
        OFFSET 0.000000 -29.696600 0.000000
        CHANNELS 3 Yrotation Xrotation Zrotation
        JOINT LeftWrist
        {
         OFFSET 0.000000 -24.004700 0.000000
         CHANNELS 3 Yrotation Xrotation Zrotation
         End Site
         {
          OFFSET 0.000000 -17.728500 0.000000
         }
        }
       }
      }
     }
    }
   }
  }
 }
 JOINT RightHip
 {
  OFFSET -7.771700 -0.012900 -0.001300
  CHANNELS 3 Yrotation Xrotation Zrotation
  JOINT RightKnee
  {
   OFFSET 0.000000 -40.869800 0.001200
   CHANNELS 3 Yrotation Xrotation Zrotation
   JOINT RightAnkle
   {
    OFFSET 0.000000 -39.717900 0.002100
    CHANNELS 3 Yrotation Xrotation Zrotation
    JOINT RightToe
    {
     OFFSET 0.000000 -4.965400 11.033500
     CHANNELS 3 Yrotation Xrotation Zrotation
     End Site
     {
      OFFSET 0.000000 -1.423100 5.872300
     }
    }
   }
  }
 }
 JOINT LeftHip
 {
  OFFSET 7.771700 -0.012900 -0.001300
  CHANNELS 3 Yrotation Xrotation Zrotation
  JOINT LeftKnee
  {
   OFFSET 0.000000 -40.869800 0.001200
   CHANNELS 3 Yrotation Xrotation Zrotation
   JOINT LeftAnkle
   {
    OFFSET 0.000000 -39.717900 0.002100
    CHANNELS 3 Yrotation Xrotation Zrotation
    JOINT LeftToe
    {
     OFFSET 0.000000 -4.965400 11.033500
     CHANNELS 3 Yrotation Xrotation Zrotation
     End Site
     {
      OFFSET 0.000000 -1.423100 5.872300
     }
    }
   }
  }
 }
}
MOTION
Frames: 12
Frame Time: 0.008333
0.000000 85.388000 0.000000 0.000000 -5.767877 0.000000 0.000000 11.653817 0.000000 0.000000 -5.885947 0.000000 0.000000 -0.000000 0.000000 0.000000 -0.000000 0.000000 0.000000 12.528835 0.000000 0.000000 0.711642 0.000000 0.000000 -0.000000 0.000000 0.000000 0.000000 -90.000000 0.000000 -2.309062 0.000000 0.000000 2.309062 0.000000 0.000000 -0.000000 0.000000 0.000000 -0.000000 90.000000 0.000000 -2.309062 0.000000 0.000000 2.309062 0.000000 0.000000 8.520406 0.000000 0.000000 1.905762 0.000000 -0.000000 -4.658285 0.000000 0.000000 -0.000000 0.000000 0.000000 8.520406 0.000000 0.000000 1.905762 0.000000 -0.000000 -4.658285 0.000000 0.000000 -0.000000 0.000000
-105.334834 46.538732 -31.658895 173.592233 -31.794239 -2.886687 0.846864 20.197233 2.194470 0.041433 2.540209 0.265533 0.073961 4.164590 0.436597 0.534227 17.340980 1.902115 1.803687 17.611107 1.514872 2.898868 -3.068417 2.154760 -0.460334 1.111122 -1.512950 5.646311 -8.294979 -15.855876 -46.136360 -56.497231 94.364448 -1.880922 1.000203 -14.514240 -1.689418 0.052303 1.264367 -5.396655 -6.271114 13.029337 69.337373 -71.173433 -107.037275 -1.380382 7.909729 6.873283 -5.928922 -54.299693 -2.146763 -165.308265 77.726894 -154.927589 -10.237164 -16.203370 -8.286042 0.050005 -0.124142 0.012899 -0.355416 -57.556838 13.993306 -113.035133 82.567774 -116.930377 7.035560 -5.019946 3.830976 -0.015335 0.129957 -0.055404
-105.324149 46.539306 -31.655604 173.544004 -31.797020 -2.874675 0.813100 20.181188 2.183028 0.076943 2.548101 0.261292 0.072123 4.163215 0.435780 0.482745 17.324582 1.898341 1.809627 17.562513 1.544210 2.819985 -3.190085 2.241828 -0.419131 1.146522 -1.517719 5.699182 -8.296310 -15.861783 -46.226633 -56.561387 94.566716 -1.818610 1.027214 -14.212820 -1.623391 0.044709 1.229706 -5.620668 -6.203428 12.830862 68.992176 -71.156636 -106.808887 -1.360266 7.955511 7.189229 -5.949782 -54.294478 -2.107250 -165.357111 77.750269 -154.960242 -10.247617 -16.194683 -8.320653 0.061258 -0.128415 0.009042 -0.394283 -57.545879 14.027831 -113.152824 82.588374 -117.029770 7.050837 -5.034263 3.802452 -0.017474 0.135300 -0.065613
-105.309958 46.540715 -31.652702 173.493899 -31.808359 -2.869335 0.824082 20.180504 2.196125 0.076697 2.550311 0.259763 0.070470 4.161674 0.434373 0.480872 17.319995 1.894494 1.777885 17.498966 1.582096 2.748586 -3.308257 2.321740 -0.393459 1.160047 -1.517756 5.716720 -8.288542 -15.858128 -46.303223 -56.629449 94.766631 -1.766923 1.042402 -13.941611 -1.598594 0.025226 1.215770 -5.830980 -6.155122 12.648515 68.776408 -71.205983 -106.690526 -1.365700 8.028605 7.467207 -5.981334 -54.278856 -2.049551 -165.397919 77.773715 -154.983809 -10.264115 -16.187341 -8.355538 0.075276 -0.133523 0.004818 -0.505408 -57.520786 14.085579 -113.421938 82.629358 -117.257388 7.075233 -5.054583 3.695799 -0.001871 0.142486 -0.055059
-105.297607 46.541912 -31.649762 173.450951 -31.819149 -2.845075 0.821641 20.178556 2.185791 0.039129 2.536848 0.262882 0.103961 4.173450 0.427528 0.485312 17.318614 1.890440 1.748258 17.436950 1.616595 2.682055 -3.423576 2.394662 -0.373441 1.170700 -1.517001 5.778656 -8.253047 -15.808848 -46.363306 -56.740608 94.902838 -1.743067 1.045972 -13.747974 -1.572080 0.009100 1.211502 -6.018867 -6.126660 12.480249 68.663139 -71.317417 -106.672233 -1.370967 8.121594 7.765624 -5.977322 -54.267519 -2.030777 -165.417143 77.787871 -154.995123 -10.271790 -16.184832 -8.365716 0.068146 -0.133258 -0.005469 -0.525599 -57.501972 14.097872 -113.517158 82.650025 -117.343339 7.101790 -5.060217 3.664485 -0.011455 0.140190 -0.053117
-105.286209 46.543010 -31.646949 173.406487 -31.831358 -2.804399 0.815888 20.178046 2.159529 0.056441 2.542708 0.259917 0.087928 4.166519 0.429759 0.488179 17.315588 1.886471 1.744402 17.415524 1.627012 2.594595 -3.578939 2.487548 -0.357258 1.177521 -1.518194 5.847001 -8.212902 -15.770990 -46.415342 -56.827549 95.030277 -1.776141 1.033215 -13.725357 -1.541959 -0.005748 1.218335 -6.185614 -6.113475 12.325403 68.652460 -71.483278 -106.751611 -1.396371 8.172317 8.195682 -5.925944 -54.258729 -2.050172 -165.404464 77.791761 -154.975880 -10.256669 -16.186096 -8.376886 0.075885 -0.124622 0.004563 -0.504799 -57.482144 14.082745 -113.549193 82.666034 -117.382529 7.136418 -5.061868 3.670582 -0.049329 0.135131 -0.064131
-105.268052 46.544409 -31.643436 173.360539 -31.846651 -2.795982 0.842893 20.185635 2.172827 0.055479 2.542224 0.258942 0.071258 4.158067 0.431212 0.495294 17.312130 1.885545 1.703545 17.334599 1.664628 2.545230 -3.670865 2.532969 -0.338290 1.179307 -1.522586 5.920011 -8.162488 -15.742036 -46.458188 -56.872430 95.130808 -1.903958 0.981688 -13.940462 -1.508260 -0.019137 1.235175 -6.341375 -6.107830 12.187852 68.787188 -71.684055 -106.947623 -1.427056 8.169574 8.775337 -5.953561 -54.241321 -1.998169 -165.468614 77.810896 -155.029112 -10.251135 -16.178995 -8.408005 0.083026 -0.128946 -0.000420 -0.504862 -57.465588 14.111563 -113.652525 82.666610 -117.442893 7.114304 -5.073551 3.631676 -0.029535 0.137554 -0.057686
-105.248501 46.545421 -31.639317 173.324574 -31.859961 -2.796112 0.863866 20.191558 2.190775 0.040012 2.535378 0.261599 0.071810 4.156947 0.430262 0.499607 17.303618 1.885305 1.662441 17.254173 1.696461 2.495227 -3.763202 2.569509 -0.317023 1.185459 -1.532125 6.003036 -8.102573 -15.710793 -46.481593 -56.850459 95.181484 -2.114365 0.865376 -14.345310 -1.476613 -0.020361 1.247307 -6.487250 -6.108315 12.085373 69.091434 -71.894206 -107.266939 -1.461861 8.138431 9.437742 -6.029172 -54.227485 -1.920366 -165.538875 77.828187 -155.106285 -10.220292 -16.162945 -8.447483 0.059715 -0.140798 -0.011449 -0.563433 -57.442563 14.156087 -113.815046 82.681924 -117.555398 7.095604 -5.106339 3.577853 0.007067 0.157970 -0.068682
-105.235640 46.544975 -31.634636 173.284574 -31.864277 -2.751191 0.856336 20.177772 2.162256 0.040331 2.533998 0.261209 0.072393 4.155168 0.429660 0.513303 17.312366 1.879554 1.624890 17.178831 1.721507 2.432386 -3.876317 2.610433 -0.306374 1.191980 -1.538631 6.093704 -8.044098 -15.676073 -46.498615 -56.766900 95.206611 -2.330721 0.694418 -14.830016 -1.462477 -0.015540 1.248879 -6.615599 -6.115675 12.036859 69.521209 -72.109469 -107.662540 -1.500005 8.124284 10.055881 -5.973726 -54.228977 -1.958611 -165.640992 77.844647 -155.178449 -10.228495 -16.156734 -8.475998 0.081064 -0.142846 -0.012097 -0.587090 -57.421626 14.148865 -113.878158 82.718063 -117.647422 7.156492 -5.118837 3.586670 -0.038647 0.160769 -0.090492
-105.215365 46.544806 -31.629255 173.183462 -31.875333 -2.716431 0.914618 20.169923 2.178352 0.040966 2.532166 0.261072 0.049381 4.128994 0.439180 0.548238 17.343621 1.861603 1.587287 17.103205 1.741577 2.366682 -3.989480 2.644706 -0.292416 1.178442 -1.535936 6.179167 -7.960035 -15.649289 -46.538770 -56.676440 95.242310 -2.493011 0.505716 -15.311769 -1.405819 -0.058792 1.338691 -6.711355 -6.076992 11.921728 69.989648 -72.351819 -108.112722 -1.540069 8.130396 10.539483 -5.976222 -54.222325 -1.890592 -165.809415 77.876506 -155.323354 -10.289391 -16.126292 -8.535771 0.103253 -0.168638 0.014996 -0.563236 -57.408023 14.189940 -113.945689 82.726246 -117.682811 7.182508 -5.155375 3.551554 -0.033616 0.187775 -0.090089
-105.199412 46.544203 -31.624507 173.127240 -31.886639 -2.678036 0.904597 20.142908 2.170926 0.064413 2.549714 0.249163 0.062947 4.138313 0.434546 0.538715 17.326503 1.865501 1.554036 17.044830 1.749572 2.296023 -4.101715 2.672804 -0.278067 1.177877 -1.542955 6.261162 -7.877295 -15.619534 -46.601421 -56.626011 95.274836 -2.590224 0.327103 -15.733923 -1.356679 -0.068401 1.400616 -6.791647 -6.052560 11.838096 70.438906 -72.638715 -108.520444 -1.579597 8.163864 10.849818 -6.068073 -54.227268 -1.797953 -165.903196 77.889665 -155.459776 -10.309279 -16.106883 -8.579294 0.101763 -0.185547 0.019758 -0.569542 -57.382112 14.195679 -114.004416 82.746447 -117.726136 7.207378 -5.176026 3.504570 -0.029259 0.197731 -0.081375
-105.183614 46.545574 -31.623478 173.053290 -31.926773 -2.625967 0.945996 20.166251 2.159548 0.037254 2.523671 0.262482 0.093989 4.168190 0.416923 0.525637 17.298886 1.874490 1.518415 16.999316 1.745755 2.219332 -4.210943 2.695178 -0.275987 1.152280 -1.561731 6.345601 -7.768777 -15.581507 -46.661311 -56.631090 95.276946 -2.635125 0.177769 -16.060403 -1.312120 -0.059153 1.441254 -6.893065 -6.034042 11.792872 70.876180 -72.927736 -108.884765 -1.617009 8.232418 10.980580 -6.017410 -54.196330 -1.799687 -165.950120 77.897206 -155.496235 -10.325305 -16.105490 -8.594018 0.108148 -0.186131 0.013140 -0.628510 -57.309888 14.226454 -114.115221 82.789763 -117.828957 7.229452 -5.204900 3.416237 -0.030509 0.212486 -0.068291
